<svg width="81" height="80" viewBox="0 0 81 80" fill="none" xmlns="http://www.w3.org/2000/svg">
    <g id="Soda">
        <g id="Vector">
            <path d="M12 11.5H69V68.5H12V11.5Z" fill="#00D891"/>
            <path d="M37.3597 25.5873C37.3597 28.5742 34.9384 30.9956 31.9515 30.9956C28.9646 30.9956 26.5432 28.5742 26.5432 25.5873C26.5432 22.6005 28.9646 20.1791 31.9515 20.1791C34.9384 20.1791 37.3597 22.6005 37.3597 25.5873Z" fill="white"/>
            <path d="M45.7053 40C45.7053 42.9869 43.284 45.4083 40.2971 45.4083C37.3102 45.4083 34.8888 42.9869 34.8888 40C34.8888 37.0131 37.3102 34.5917 40.2971 34.5917C43.284 34.5917 45.7053 37.0131 45.7053 40Z" fill="white"/>
            <path d="M54.4569 54.6514C54.4569 57.6383 52.0355 60.0597 49.0486 60.0597C46.0617 60.0597 43.6404 57.6383 43.6404 54.6514C43.6404 51.6645 46.0617 49.2432 49.0486 49.2432C52.0355 49.2432 54.4569 51.6645 54.4569 54.6514Z" fill="white"/>
        </g>
    </g>
</svg>
